<svg xmlns="http://www.w3.org/2000/svg" viewBox="0 0 512 512" fill="none">
  <rect width="512" height="512" rx="96" fill="#3B82F6"/>
  <path d="M256 96C171.634 96 96 171.634 96 256s75.634 160 160 160 160-75.634 160-160S340.366 96 256 96zm0 48c61.856 0 112 50.144 112 112s-50.144 112-112 112-112-50.144-112-112 50.144-112 112-112z" fill="white" opacity="0.3"/>
  <path d="M256 160c-52.934 0-96 43.066-96 96s43.066 96 96 96 96-43.066 96-96-43.066-96-96-96zm-12 140V212l76 44-76 44z" fill="white"/>
  <text x="256" y="430" text-anchor="middle" font-family="sans-serif" font-size="52" font-weight="bold" fill="white">스포짐</text>
</svg>
